# xmcd
#
# Track frame offsets: 
#        182
#        19472
#        37575
#        56125
#        78132
#        94122
#        111022
#        130880
#        153477
#        170552
#        193125
#        210792
#        227960
#        258902
#
# Disc length: 4619 seconds
#
# Revision: 3
# Processed by: cddbd v1.5.1PL0 Copyright (c) Steve Scherf et al.
# Submitted via: ExactAudioCopy v0.95a5
#
DISCID=b112090e
DTITLE=Defunkt - Cum Funky
DYEAR=1994
DGENRE=Jazz+Funk
TTITLE0=See Through
TTITLE1=It's On My Mind
TTITLE2=Knuckle Sandwich
TTITLE3=Without Justice
TTITLE4=Happy
TTITLE5=Cum Funky
TTITLE6=Dogon A.D.
TTITLE7=When You Were Mine
TTITLE8=Sneakin'
TTITLE9=Runaway
TTITLE10=Knuckle Sandwich (Dub Remix)
TTITLE11=See through (Dub Remix)
TTITLE12=Strangling me with your Love (Live)
TTITLE13=Knuckle Sandwich (Live Trance)
EXTD=
EXTT0=
EXTT1=
EXTT2=
EXTT3=
EXTT4=
EXTT5=
EXTT6=
EXTT7=
EXTT8=
EXTT9=
EXTT10=
EXTT11=
EXTT12=
EXTT13=
PLAYORDER=
